HIERARCHY
ROOT joint_Root
{
	OFFSET 0.0 0.0 0.0
	CHANNELS 6 Xposition Yposition Zposition Zrotation Xrotation Yrotation 
	JOINT Hips
	{
		OFFSET 4.5925 91.4895 -427.239
		CHANNELS 6 Xposition Yposition Zposition Zrotation Xrotation Yrotation 
		JOINT Spine
		{
			OFFSET 15.7357 0.0 0.0
			CHANNELS 6 Xposition Yposition Zposition Zrotation Xrotation Yrotation 
			JOINT Chest
			{
				OFFSET 8.98455 -0.406207 0.0
				CHANNELS 6 Xposition Yposition Zposition Zrotation Xrotation Yrotation 
				JOINT Neck
				{
					OFFSET 16.3773 0.0 0.0
					CHANNELS 6 Xposition Yposition Zposition Zrotation Xrotation Yrotation 
					JOINT Head
					{
						OFFSET 6.45672 0.0 0.0
						CHANNELS 6 Xposition Yposition Zposition Zrotation Xrotation Yrotation 
						End Site
						{
							OFFSET 0.0 0.0 0.0
						}
					}
				}
				JOINT Shoulder_L
				{
					OFFSET 12.9942 -0.242716 4.98039
					CHANNELS 6 Xposition Yposition Zposition Zrotation Xrotation Yrotation 
					JOINT UpperArm_L
					{
						OFFSET 5.34809 0.0 0.0
						CHANNELS 6 Xposition Yposition Zposition Zrotation Xrotation Yrotation 
						JOINT LowerArm_L
						{
							OFFSET 24.3286 1.87007e-05 0.0
							CHANNELS 6 Xposition Yposition Zposition Zrotation Xrotation Yrotation 
							JOINT Hand_L
							{
								OFFSET 22.2916 0.0 0.0
								CHANNELS 6 Xposition Yposition Zposition Zrotation Xrotation Yrotation 
								End Site
								{
									OFFSET 0.0 0.0 0.0
								}
							}
						}
					}
				}
				JOINT Shoulder_R
				{
					OFFSET 12.9945 -0.242716 -4.98039
					CHANNELS 6 Xposition Yposition Zposition Zrotation Xrotation Yrotation 
					JOINT UpperArm_R
					{
						OFFSET -5.34813 0.0 0.0
						CHANNELS 6 Xposition Yposition Zposition Zrotation Xrotation Yrotation 
						JOINT LowerArm_R
						{
							OFFSET -24.3289 0.000322201 0.0
							CHANNELS 6 Xposition Yposition Zposition Zrotation Xrotation Yrotation 
							JOINT Hand_R
							{
								OFFSET -22.2915 -0.000108084 0.0
								CHANNELS 6 Xposition Yposition Zposition Zrotation Xrotation Yrotation 
								End Site
								{
									OFFSET 0.0 0.0 0.0
								}
							}
						}
					}
				}
			}
		}
		JOINT UpperLeg_L
		{
			OFFSET -2.19248 -6.46944 0.0
			CHANNELS 6 Xposition Yposition Zposition Zrotation Xrotation Yrotation 
			JOINT LowerLeg_L
			{
				OFFSET 39.0811 0.0 -1.23785e-05
				CHANNELS 6 Xposition Yposition Zposition Zrotation Xrotation Yrotation 
				JOINT Foot_L
				{
					OFFSET 40.9854 0.0 -1.26872e-05
					CHANNELS 6 Xposition Yposition Zposition Zrotation Xrotation Yrotation 
					JOINT Toes_L
					{
						OFFSET 11.7543 0.0 0.0
						CHANNELS 6 Xposition Yposition Zposition Zrotation Xrotation Yrotation 
						End Site
						{
							OFFSET 0.0 0.0 0.0
						}
					}
				}
			}
		}
		JOINT UpperLeg_R
		{
			OFFSET -2.19251 6.46944 0.0
			CHANNELS 6 Xposition Yposition Zposition Zrotation Xrotation Yrotation 
			JOINT LowerLeg_R
			{
				OFFSET -39.0811 -0.00228153 -0.0401928
				CHANNELS 6 Xposition Yposition Zposition Zrotation Xrotation Yrotation 
				JOINT Foot_R
				{
					OFFSET -40.9854 0.0 0.0
					CHANNELS 6 Xposition Yposition Zposition Zrotation Xrotation Yrotation 
					JOINT Toes_R
					{
						OFFSET -11.7543 0.0 0.0
						CHANNELS 6 Xposition Yposition Zposition Zrotation Xrotation Yrotation 
						End Site
						{
							OFFSET 0.0 0.0 0.0
						}
					}
				}
			}
		}
	}
}
MOTION
Frames:	9
Frame Time:	0.0333333
0.000000 0.000000 0.000000 0.000000 0.000000 -0.000000 -2.184240 84.473900 -1.981670 85.293200 -1.627530 8.924960 15.735700 0.000005 -0.000001 85.120500 81.512100 -84.100800 8.984550 -0.406207 -0.000000 9.163930 -1.423750 2.151790 16.377300 -0.000001 -0.000001 -3.377360 -1.059720 1.273410 6.456720 -0.000001 -0.000000 -5.052290 2.513640 -1.238320 12.994200 -0.242716 4.980390 -91.495600 5.387780 -74.460900 5.348090 -0.000007 -0.000001 -64.874400 27.873800 -9.093450 24.328600 0.000019 0.000005 10.509600 17.230900 -32.063300 22.291600 -0.000001 0.000005 15.151200 5.271250 0.858062 12.994500 -0.242716 -4.980390 87.892600 10.639700 -78.728000 -5.348130 -0.000001 -0.000004 -57.432600 21.271100 -9.875850 -24.328900 0.000322 -0.000009 0.278155 0.396440 -35.090600 -22.291500 -0.000108 -0.000004 12.879800 5.450860 -4.650080 -2.192480 -6.469440 -0.000000 -168.633000 -12.448500 -15.167900 39.081100 -0.000007 -0.000012 -0.289881 0.189032 56.892400 40.985400 -0.000006 -0.000013 2.233580 10.041800 -82.511800 11.754300 -0.000000 0.000003 -0.000157 -0.001513 -16.635000 -2.192510 6.469440 -0.000001 -178.344000 14.622900 166.952000 -39.081100 -0.002282 -0.040193 0.056491 -0.038344 54.248700 -40.985400 0.000008 0.000006 9.499650 8.031560 -83.049700 -11.754300 -0.000006 -0.000006 -0.859646 -1.073610 -16.220300
0.000000 0.000000 0.000000 0.000000 0.000000 -0.000000 -2.638500 86.088600 -1.446580 84.810900 0.295480 8.686420 15.735700 0.000005 -0.000001 83.973900 82.400500 -83.811200 8.984550 -0.406207 -0.000000 7.353360 -1.590260 0.427285 16.377300 -0.000001 -0.000001 -1.985260 -0.968978 1.375010 6.456720 -0.000001 -0.000000 -3.471560 1.940650 0.752528 12.994200 -0.242716 4.980390 -91.468700 5.038940 -73.727300 5.348090 -0.000007 -0.000001 -66.823100 24.402700 -7.635590 24.328600 0.000019 0.000005 9.897510 18.179000 -29.214000 22.291600 -0.000001 0.000005 15.647600 5.155260 3.809840 12.994500 -0.242716 -4.980390 87.945400 9.728030 -78.012800 -5.348130 -0.000001 -0.000004 -56.116400 14.829500 -10.331500 -24.328900 0.000322 -0.000009 1.313540 1.683460 -38.017600 -22.291500 -0.000108 -0.000004 9.318020 5.448500 -4.592220 -2.192480 -6.469440 -0.000000 -167.977000 -11.641100 -13.018400 39.081100 -0.000007 -0.000012 -0.236256 0.185535 51.857800 40.985400 -0.000006 -0.000013 1.978980 11.304300 -80.137900 11.754300 -0.000000 0.000003 -0.000162 -0.001548 -16.636300 -2.192510 6.469440 -0.000001 -177.775000 16.157000 169.898000 -39.081100 -0.002282 -0.040193 0.052184 -0.042949 48.725600 -40.985400 0.000008 0.000006 9.236020 8.063550 -80.449900 -11.754300 -0.000006 -0.000006 -0.944511 -1.177380 -16.523400
0.000000 0.000000 0.000000 0.000000 0.000000 -0.000000 -2.766530 88.536000 -0.854437 84.886600 1.979840 7.797850 15.735700 0.000005 -0.000001 81.803800 83.537500 -82.819700 8.984550 -0.406207 -0.000000 5.013620 -1.814500 -1.950120 16.377300 -0.000001 -0.000001 -0.096160 -0.977004 1.434010 6.456720 -0.000001 -0.000000 -2.112790 1.240890 2.610020 12.994200 -0.242716 4.980390 -91.472800 4.701570 -72.583500 5.348090 -0.000007 -0.000001 -67.359800 22.730600 -5.711960 24.328600 0.000019 0.000005 7.697250 15.399300 -26.974100 22.291600 -0.000001 0.000005 14.645500 5.131080 4.382840 12.994500 -0.242716 -4.980390 88.240900 7.822490 -77.282400 -5.348130 -0.000001 -0.000004 -50.451100 9.079510 -13.788900 -24.328900 0.000322 -0.000009 0.920495 0.970518 -43.488500 -22.291500 -0.000108 -0.000004 8.933520 5.460000 -4.999450 -2.192480 -6.469440 -0.000000 -168.378000 -10.980700 -9.556570 39.081100 -0.000007 -0.000012 -0.150862 0.161477 43.054200 40.985400 -0.000006 -0.000013 1.380310 12.110000 -75.918800 11.754300 -0.000000 0.000003 -0.000093 -0.000967 -16.614700 -2.192510 6.469440 -0.000001 -177.708000 17.090500 173.788000 -39.081100 -0.002282 -0.040193 0.039617 -0.043722 39.730500 -40.985400 0.000008 0.000006 8.514340 8.370850 -75.572000 -11.754300 -0.000006 -0.000006 -1.025400 -1.264520 -17.235000
0.000000 0.000000 0.000000 0.000000 0.000000 -0.000000 -2.539830 90.677900 -0.597840 85.466400 2.614430 5.656860 15.735700 0.000005 -0.000001 79.476700 85.020900 -81.739400 8.984550 -0.406207 -0.000000 1.995920 -1.703670 -4.491620 16.377300 -0.000001 -0.000001 1.934230 -0.485832 1.261230 6.456720 -0.000001 -0.000000 -0.695137 0.732183 4.069760 12.994200 -0.242716 4.980390 -91.369800 3.947330 -70.844000 5.348090 -0.000007 -0.000001 -67.382700 21.203600 -3.490470 24.328600 0.000019 0.000005 8.130680 16.102900 -27.250800 22.291600 -0.000001 0.000005 10.621400 5.186650 3.034000 12.994500 -0.242716 -4.980390 88.738400 5.542400 -77.154400 -5.348130 -0.000001 -0.000004 -41.836500 -1.263620 -19.833900 -24.328900 0.000322 -0.000009 2.131000 1.847790 -49.113800 -22.291500 -0.000108 -0.000004 11.249000 5.477250 -5.625970 -2.192480 -6.469440 -0.000000 -169.663000 -11.415900 -6.912850 39.081100 -0.000007 -0.000012 -0.099751 0.150443 33.546700 40.985400 -0.000006 -0.000013 0.784000 12.547000 -71.211800 11.754300 -0.000000 0.000003 -0.000060 -0.000662 -16.603200 -2.192510 6.469440 -0.000001 -178.382000 19.895500 175.855000 -39.081100 -0.002282 -0.040193 0.027109 -0.039191 31.280500 -40.985400 0.000008 0.000006 8.121620 11.343300 -69.811100 -11.754300 -0.000006 -0.000006 -1.331650 -1.598790 -18.726000
0.000000 0.000000 0.000000 0.000000 0.000000 -0.000000 -2.083180 91.925400 -0.564966 85.608000 2.525170 4.032270 15.735700 0.000005 -0.000001 81.810400 86.116700 -84.682500 8.984550 -0.406207 -0.000000 -0.094901 -0.909212 -5.741520 16.377300 -0.000001 -0.000001 3.156970 -0.153542 0.552612 6.456720 -0.000001 -0.000000 0.062033 0.405927 4.475400 12.994200 -0.242716 4.980390 -91.563600 4.147870 -69.325600 5.348090 -0.000007 -0.000001 -66.364800 20.275500 -1.399150 24.328600 0.000019 0.000005 10.105000 18.232800 -29.664700 22.291600 -0.000001 0.000005 6.880960 5.226250 2.049450 12.994500 -0.242716 -4.980390 89.347200 3.013640 -77.785600 -5.348130 -0.000001 -0.000004 -29.893800 -16.416700 -26.205000 -24.328900 0.000322 -0.000009 -0.992636 -0.787984 -51.491300 -22.291500 -0.000108 -0.000004 17.129200 5.484370 -5.893600 -2.192480 -6.469440 -0.000000 -170.358000 -13.002000 -5.085620 39.081100 -0.000007 -0.000012 -0.069089 0.136719 26.809200 40.985400 -0.000006 -0.000013 0.688156 13.554400 -67.879900 11.754300 -0.000000 0.000003 -0.000042 -0.000490 -16.596600 -2.192510 6.469440 -0.000001 -179.134000 23.951400 176.922000 -39.081100 -0.002282 -0.040193 0.020779 -0.035855 25.975700 -40.985400 0.000008 0.000006 7.225980 15.999900 -66.097500 -11.754300 -0.000006 -0.000006 -0.069272 -0.126743 -18.762800
0.000000 0.000000 0.000000 0.000000 0.000000 -0.000000 -1.745310 92.369200 -0.763111 85.768600 2.421400 2.824250 15.735700 0.000005 -0.000001 91.082500 86.589500 -94.242500 8.984550 -0.406207 -0.000000 -0.928148 0.368376 -6.314260 16.377300 -0.000001 -0.000001 2.922080 -0.099315 -0.190180 6.456720 -0.000001 -0.000000 -0.212172 -0.242098 4.316990 12.994200 -0.242716 4.980390 -92.071100 5.226100 -68.348200 5.348090 -0.000007 -0.000001 -63.883800 20.021300 -0.628129 24.328600 0.000019 0.000005 11.087600 18.263000 -32.019500 22.291600 -0.000001 0.000005 5.343620 5.248430 1.474170 12.994500 -0.242716 -4.980390 90.270600 -1.454110 -79.419000 -5.348130 -0.000001 -0.000004 -19.034200 -36.020400 -28.645800 -24.328900 0.000322 -0.000009 -6.181260 -5.189870 -50.140300 -22.291500 -0.000108 -0.000004 23.501200 5.534220 -7.896300 -2.192480 -6.469440 -0.000000 -170.874000 -15.203900 -5.015730 39.081100 -0.000007 -0.000012 -0.036072 0.080703 24.083300 40.985400 -0.000006 -0.000013 1.004580 15.261800 -66.411400 11.754300 -0.000000 0.000003 -0.000038 -0.000441 -16.594700 -2.192510 6.469440 -0.000001 -179.484000 26.382000 177.187000 -39.081100 -0.002282 -0.040193 0.015787 -0.029464 22.940900 -40.985400 0.000008 0.000006 6.392260 18.918600 -64.710400 -11.754300 -0.000006 -0.000006 -0.004118 -0.052665 -18.715500
0.000000 0.000000 0.000000 0.000000 0.000000 -0.000000 -1.607710 92.370100 -0.990667 86.876000 3.534140 2.477440 15.735700 0.000005 -0.000001 93.643400 86.389100 -97.335600 8.984550 -0.406207 -0.000000 -0.524779 0.725621 -7.377270 16.377300 -0.000001 -0.000001 2.200060 -0.559876 0.221033 6.456720 -0.000001 -0.000000 -1.335880 -0.299707 2.701450 12.994200 -0.242716 4.980390 -92.621600 6.433520 -67.774000 5.348090 -0.000007 -0.000001 -60.585200 19.182400 -0.537250 24.328600 0.000019 0.000005 11.271300 17.286200 -33.850200 22.291600 -0.000001 0.000005 6.969550 5.260790 1.146450 12.994500 -0.242716 -4.980390 91.516900 -8.011070 -79.251400 -5.348130 -0.000001 -0.000004 -15.426800 -56.008900 -33.397600 -24.328900 0.000322 -0.000009 -7.190010 -7.093080 -45.620600 -22.291500 -0.000108 -0.000004 26.840200 5.611780 -11.932300 -2.192480 -6.469440 -0.000000 -172.142000 -16.363400 -5.385280 39.081100 -0.000007 -0.000012 -0.011885 0.027325 23.507500 40.985400 -0.000006 -0.000013 1.495670 17.189600 -65.930600 11.754300 -0.000000 0.000003 -0.000035 -0.000415 -16.593700 -2.192510 6.469440 -0.000001 179.535000 26.919100 177.733000 -39.081100 -0.002282 -0.040193 0.010793 -0.019115 21.354500 -40.985400 0.000008 0.000006 6.658270 18.311400 -65.323800 -11.754300 -0.000006 -0.000006 -0.393954 -0.495583 -18.901300
0.000000 0.000000 0.000000 0.000000 0.000000 -0.000000 -1.758470 92.328400 -1.180710 87.974600 5.483060 2.294720 15.735700 0.000005 -0.000001 92.911100 86.117200 -97.207800 8.984550 -0.406207 -0.000000 0.029693 0.683876 -8.588250 16.377300 -0.000001 -0.000001 2.215560 -2.153320 2.194060 6.456720 -0.000001 -0.000000 -2.065580 -0.363245 0.486971 12.994200 -0.242716 4.980390 -92.704600 6.785780 -68.208400 5.348090 -0.000007 -0.000001 -58.318600 16.593800 -0.826290 24.328600 0.000019 0.000005 11.866000 18.007600 -34.203400 22.291600 -0.000001 0.000005 10.735700 5.257210 1.240630 12.994500 -0.242716 -4.980390 93.406000 -14.212100 -76.382400 -5.348130 -0.000001 -0.000004 -13.030800 -68.346600 -38.266200 -24.328900 0.000322 -0.000009 -8.664710 -10.512600 -39.863900 -22.291500 -0.000108 -0.000004 30.715400 5.657580 -15.804500 -2.192480 -6.469440 -0.000000 -173.224000 -16.358000 -5.798500 39.081100 -0.000007 -0.000012 -0.003569 0.008363 23.107100 40.985400 -0.000006 -0.000013 1.721860 19.012600 -65.437600 11.754300 -0.000000 0.000003 -0.000030 -0.000362 -16.591700 -2.192510 6.469440 -0.000001 178.921000 26.594200 178.032000 -39.081100 -0.002282 -0.040193 0.007928 -0.012169 20.741100 -40.985400 0.000008 0.000006 6.986220 15.749300 -66.809400 -11.754300 -0.000006 -0.000006 -0.002739 -0.037610 -18.102600
0.000000 0.000000 0.000000 0.000000 0.000000 -0.000000 -2.104200 92.442500 -1.159810 88.183300 7.086940 1.931310 15.735700 0.000005 -0.000001 93.684900 86.109500 -98.201700 8.984550 -0.406207 -0.000000 0.046567 0.803662 -9.028270 16.377300 -0.000001 -0.000001 3.405320 -3.221700 3.765670 6.456720 -0.000001 -0.000000 -2.913660 -0.888955 -0.259138 12.994200 -0.242716 4.980390 -92.682000 6.820490 -68.473300 5.348090 -0.000007 -0.000001 -57.738100 12.415600 -1.203620 24.328600 0.000019 0.000005 13.390600 21.221800 -33.333700 22.291600 -0.000001 0.000005 13.556200 5.231480 1.912290 12.994500 -0.242716 -4.980390 95.237600 -17.121400 -72.707000 -5.348130 -0.000001 -0.000004 5.709470 -72.319400 -29.648800 -24.328900 0.000322 -0.000009 -4.392590 -7.372630 -30.847000 -22.291500 -0.000108 -0.000004 26.700800 5.642480 -14.126600 -2.192480 -6.469440 -0.000000 -173.263000 -16.852200 -5.930660 39.081100 -0.000007 -0.000012 -0.003546 0.008742 22.077600 40.985400 -0.000006 -0.000013 1.707160 21.061300 -64.731200 11.754300 -0.000000 0.000003 -0.000028 -0.000345 -16.591000 -2.192510 6.469440 -0.000001 179.137000 27.429800 178.118000 -39.081100 -0.002282 -0.040193 0.007084 -0.010350 19.976700 -40.985400 0.000008 0.000006 7.068420 14.998700 -66.491800 -11.754300 -0.000006 -0.000006 -0.002913 -0.039618 -18.184300
